{
	"asset":{
		"generator":"Khronos glTF Blender I/O v4.2.60",
		"version":"2.0"
	},
	"scene":0,
	"scenes":[
		{
			"name":"Scene",
			"nodes":[
				5
			]
		}
	],
	"nodes":[
		{
			"mesh":0,
			"name":"LowPoly001_Material #108_0",
			"translation":[
				3.0517578125e-05,
				0,
				2.667085936991498e-06
			]
		},
		{
			"children":[
				0
			],
			"name":"Object_4",
			"translation":[
				293.8697509765625,
				-61.01581954956055,
				-204.48367309570312
			]
		},
		{
			"children":[
				1
			],
			"name":"LowPoly001",
			"translation":[
				1035.917724609375,
				0,
				0
			]
		},
		{
			"children":[
				2
			],
			"name":"RootNode"
		},
		{
			"children":[
				3
			],
			"name":"af3387fbdb174fc79da0b21d5f2b0ad0.fbx",
			"rotation":[
				0.70710688829422,
				0,
				0,
				0.7071066498756409
			]
		},
		{
			"children":[
				4
			],
			"name":"Sketchfab_model",
			"rotation":[
				-0.70710688829422,
				0,
				0,
				0.7071066498756409
			],
			"translation":[
				-1033.7474365234375,
				0,
				0
			]
		}
	],
	"materials":[
		{
			"doubleSided":true,
			"name":"Material_108.001",
			"normalTexture":{
				"index":0
			},
			"occlusionTexture":{
				"index":1
			},
			"pbrMetallicRoughness":{
				"baseColorTexture":{
					"index":2
				},
				"metallicFactor":0,
				"metallicRoughnessTexture":{
					"index":1
				}
			}
		}
	],
	"meshes":[
		{
			"name":"LowPoly001_Material #108_0.001",
			"primitives":[
				{
					"attributes":{
						"POSITION":0,
						"NORMAL":1,
						"TEXCOORD_0":2
					},
					"indices":3,
					"material":0
				}
			]
		}
	],
	"textures":[
		{
			"sampler":0,
			"source":0
		},
		{
			"sampler":0,
			"source":1
		},
		{
			"sampler":0,
			"source":2
		}
	],
	"images":[
		{
			"mimeType":"image/png",
			"name":"Material_108_normal",
			"uri":"textures/Material_108_normal.png"
		},
		{
			"mimeType":"image/png",
			"name":"Material_108_metallicRoughness",
			"uri":"textures/Material_108_metallicRoughness.png"
		},
		{
			"mimeType":"image/jpeg",
			"name":"Material_108_baseColor",
			"uri":"textures/Material_108_baseColor.jpeg"
		}
	],
	"accessors":[
		{
			"bufferView":0,
			"componentType":5126,
			"count":1309,
			"max":[
				-169.45956420898438,
				141.18014526367188,
				332.1752624511719
			],
			"min":[
				-418.2799377441406,
				-19.148508071899414,
				76.79207611083984
			],
			"type":"VEC3"
		},
		{
			"bufferView":1,
			"componentType":5126,
			"count":1309,
			"type":"VEC3"
		},
		{
			"bufferView":2,
			"componentType":5126,
			"count":1309,
			"type":"VEC2"
		},
		{
			"bufferView":3,
			"componentType":5123,
			"count":7458,
			"type":"SCALAR"
		}
	],
	"bufferViews":[
		{
			"buffer":0,
			"byteLength":15708,
			"byteOffset":0,
			"target":34962
		},
		{
			"buffer":0,
			"byteLength":15708,
			"byteOffset":15708,
			"target":34962
		},
		{
			"buffer":0,
			"byteLength":10472,
			"byteOffset":31416,
			"target":34962
		},
		{
			"buffer":0,
			"byteLength":14916,
			"byteOffset":41888,
			"target":34963
		}
	],
	"samplers":[
		{
			"magFilter":9729,
			"minFilter":9987
		}
	],
	"buffers":[
		{
			"byteLength":56804,
			"uri":"scene.bin"
		}
	]
}
